# xmcd CD database file
#
# Track frame offsets:
#	150
#	23266
#	38358
#	56947
#	73505
#	91200
#	110030
#	125394
#	139698
#	158464
#	178906
#	195141
#	216758
#	235284
#	257371
#	272778
#	290686
#	306775
#	331861
#
# Disc length: 4620 seconds
#
# Revision: 2
# Processed by: cddbd v1.5.1PL0 Copyright (c) Steve Scherf et al.
# Submitted via: CDex 1.51
#
DISCID=02120a13
DTITLE=Jamie Cullum - Twenty Someting (Special Edition)
DYEAR=2004
DGENRE=Jazz
TTITLE0=What A Difference A Day Made
TTITLE1=These Are The Days
TTITLE2=Singin' In The Rain
TTITLE3=Twentysomething
TTITLE4=But For Now
TTITLE5=Old Devil Moon
TTITLE6=I Could Have Danced All Night
TTITLE7=Blame It On My Youth
TTITLE8=I Get A Kick Out Of You
TTITLE9=All At Sea (Album Version)
TTITLE10=Wind Cries Mary
TTITLE11=Lover, You Should Have Come Over
TTITLE12=It's About Time
TTITLE13=Next Year Baby
TTITLE14=Everlasting Love
TTITLE15=Frontin' (BBC Radio 1 Live Lounge)
TTITLE16=Can't We Be Friends?
TTITLE17=High And Dry
TTITLE18=God Only Knows
EXTD=YEAR: 2004
EXTT0=
EXTT1=
EXTT2=
EXTT3=
EXTT4=
EXTT5=
EXTT6=
EXTT7=
EXTT8=
EXTT9=
EXTT10=
EXTT11=
EXTT12=
EXTT13=
EXTT14=
EXTT15=
EXTT16=
EXTT17=
EXTT18=
PLAYORDER=
